<svg width="32" height="32" viewBox="0 0 32 32" fill="none" xmlns="http://www.w3.org/2000/svg">
<path d="M14.6293 3.6113C15.2511 2.57799 16.7492 2.57799 17.3711 3.6113L20.4783 8.7745C20.7017 9.14572 21.0661 9.41047 21.4882 9.50823L27.3589 10.8679C28.5338 11.14 28.9967 12.5648 28.2062 13.4755L24.2559 18.0262C23.9718 18.3534 23.8327 18.7817 23.8701 19.2134L24.3911 25.2169C24.4954 26.4184 23.2834 27.2989 22.173 26.8285L16.6243 24.4778C16.2254 24.3088 15.775 24.3088 15.376 24.4778L9.82734 26.8285C8.71688 27.2989 7.50491 26.4184 7.60918 25.2169L8.13021 19.2134C8.16767 18.7817 8.02848 18.3534 7.74447 18.0262L3.79417 13.4755C3.00359 12.5648 3.46652 11.14 4.64143 10.8679L10.5121 9.50823C10.9342 9.41047 11.2986 9.14572 11.522 8.7745L14.6293 3.6113Z" fill="#E4A802" stroke="#E4A802" stroke-width="2"/>
</svg>
